<svg xmlns="http://www.w3.org/2000/svg" data-name="Layer 1" viewBox="0 0 1992.28 325.97"><path fill="#fdf9eb" d="M.28 100.97h45.13c10.65 0 15.98 5.05 15.98 15.98v22.98c0 10.93-5.33 15.98-15.98 15.98H19.34v26.07H0v-81.01h.28zm39.8 38.4c1.68 0 2.24-.56 2.24-2.24v-17.38c0-1.68-.56-2.24-2.24-2.24H19.62v21.86h20.46zm126.98 42.89h-19.9l-13.45-28.03H122.5v28.03h-19.34v-81.01h45.13c10.65 0 15.98 5.05 15.98 15.98v20.18c0 9.25-3.64 14.01-11.21 15.42l14.01 29.43zm-24.39-44.01c1.68 0 2.24-.56 2.24-2.24v-16.54c0-1.68-.56-2.24-2.24-2.24h-20.46v20.74h20.46v.28zm65.59-37.28h55.78v16.82h-36.72v14.58h29.43v16.54h-29.43v16.54h36.72v16.82h-55.78v-81.3zm96.71 65.31v-10.65h19.06v8.13c0 1.68.56 2.24 2.24 2.24h18.22c1.68 0 2.24-.56 2.24-2.24v-8.41c0-1.96-.84-2.52-3.36-3.08l-21.58-5.33c-10.65-2.8-16.82-5.61-16.82-16.82v-13.45c0-10.93 5.33-15.98 15.98-15.98h27.47c10.65 0 15.98 5.05 15.98 15.98v9.81h-19.06v-7.29c0-1.68-.56-2.24-2.24-2.24h-16.82c-1.68 0-2.24.56-2.24 2.24v7.57c0 1.96.56 2.52 3.36 3.08l21.58 5.33c10.65 2.8 16.82 5.61 16.82 16.82v14.3c0 10.65-5.33 15.98-15.98 15.98h-28.87c-10.93 0-15.98-5.33-15.98-15.98zm103.15-65.31h55.78v16.82h-36.72v14.58h29.43v16.54h-29.43v16.54h36.72v16.82h-55.78v-81.3zm97.82 0h19.62l28.59 47.65v-47.65h18.78v81.01h-17.94l-30.27-50.17v50.17h-18.78v-81.01zm128.66 16.82h-21.02v-16.82h61.67v16.82h-21.3v64.19h-19.34v-64.19zm81.28-16.82h55.78v16.82h-36.72v14.58h29.43v16.54h-29.43v16.54h36.72v16.82h-55.78v-81.3zm97.83 0h46.25c10.65 0 15.98 5.05 15.98 15.98V166c0 10.65-5.33 15.98-15.98 15.98h-46.25v-81.01zm40.92 64.47c1.68 0 2.24-.56 2.24-2.24v-43.45c0-1.68-.56-2.24-2.24-2.24h-21.58v47.65h21.58v.28zm124.18-64.47h44.85c10.65 0 15.98 5.05 15.98 15.98v10.09c0 7.01-1.96 11.49-8.41 13.73 7.01 1.68 9.25 7.29 9.25 13.73v11.77c0 10.65-5.33 15.98-15.98 15.98h-45.69v-81.28zm39.52 32.23c1.68 0 2.24-.56 2.24-2.24v-11.77c0-1.68-.56-2.24-2.24-2.24h-19.9v15.98h19.9v.28zm.84 33.08c1.68 0 2.24-.56 2.24-2.24v-13.45c0-1.68-.56-2.24-2.24-2.24h-21.02v17.94h21.02zm83.53-10.65-26.07-54.66h20.74l15.14 35.32 14.86-35.32h20.74l-26.07 54.66v26.35h-19.34v-26.35zM1594.74 6.84l-53.09 162.4h-40.38l-35.69-109.99-36.86 109.99h-40.09l-53.37-162.4h38.82l36.66 114.1 38.23-114.1h34.81l37.15 115.08 37.84-115.08h35.98zm-.09 100.02c0-37.54 29.04-64.24 68.64-64.24s68.44 26.69 68.44 64.24-28.74 64.24-68.44 64.24-68.64-26.69-68.64-64.24zm100.41 0c0-21.61-13.69-34.61-31.78-34.61s-31.97 13-31.97 34.61 13.88 34.61 31.97 34.61c18.09-.1 31.78-13.1 31.78-34.61zm256.65-54.85h31.97v27.86h-31.09v89.46h-36.18V79.88h-19.26V52.02h19.26v-5.57c0-28.06 17.21-46.44 48.3-46.44 10.17 0 20.92 2.05 27.57 6.75l-9.48 26.2c-3.91-2.74-9.09-4.4-14.57-4.4-10.66 0-16.43 5.77-16.43 18.09v5.38h-.1zm-160.64 102.86 57.78-147.93h-46.24l-58.18 162.4h61.6l-48.5 156.63 85.85-171.1h-52.31z"/><path fill="#f18e2a" d="M1887.76 6.94h-38.91l-57.78 147.93h52.31l-85.85 171.1 127.79-185.96h-56.41l58.85-133.07z"/></svg>